<svg width="129" height="119" viewBox="0 0 129 119" fill="none" xmlns="http://www.w3.org/2000/svg">
<path d="M74.698 69.145L76.0513 67.6724L74.6901 66.4214L73.3361 67.6803L74.698 69.145ZM128.947 119V121H134.079L130.3 117.527L128.947 119ZM70.642 119L69.2911 120.475L69.8644 121H70.642V119ZM26.364 78.44L24.9916 76.9852L23.4266 78.4615L25.0131 79.9148L26.364 78.44ZM94.978 13.713L96.3504 15.1678L100.013 11.713H94.978V13.713ZM75.881 13.713V11.713H75.0728L74.4916 12.2744L75.881 13.713ZM26.364 61.54H24.364V66.2523L27.7535 62.9785L26.364 61.54ZM26.364 13.713H28.364V11.713H26.364V13.713ZM13.182 13.713V11.713H11.182V13.713H13.182ZM13.182 105.818H11.182V107.818H13.182V105.818ZM36.504 105.818L37.8476 104.337L37.2759 103.818H36.504V105.818ZM51.038 119V121H56.2201L52.3816 117.519L51.038 119ZM0 119H-2V121H0V119ZM0 0.530994V-1.46901H-2V0.530994H0ZM39.546 0.530994H41.546V-1.46901H39.546V0.530994ZM39.546 29.599H37.546V34.2063L40.9118 31.06L39.546 29.599ZM70.642 0.530994V-1.46901H69.8528L69.2762 -0.93006L70.642 0.530994ZM128.271 0.530994L129.641 1.98774L133.316 -1.46901H128.271V0.530994ZM45.63 78.271L44.2596 76.8142L42.6901 78.2907L44.2793 79.746L45.63 78.271ZM75.712 105.818L74.3613 107.293L74.9346 107.818H75.712V105.818ZM95.147 105.818V107.818H100.269L96.5022 104.347L95.147 105.818ZM65.065 78.102L63.7031 76.6373L62.1207 78.1087L63.7098 79.5729L65.065 78.102ZM73.3447 70.6176L127.594 120.473L130.3 117.527L76.0513 67.6724L73.3447 70.6176ZM128.947 117H70.642V121H128.947V117ZM71.9929 117.525L27.7149 76.9652L25.0131 79.9148L69.2911 120.475L71.9929 117.525ZM27.7364 79.8948L96.3504 15.1678L93.6056 12.2582L24.9916 76.9852L27.7364 79.8948ZM94.978 11.713H75.881V15.713H94.978V11.713ZM74.4916 12.2744L24.9745 60.1015L27.7535 62.9785L77.2705 15.1515L74.4916 12.2744ZM28.364 61.54V13.713H24.364V61.54H28.364ZM26.364 11.713H13.182V15.713H26.364V11.713ZM11.182 13.713V105.818H15.182V13.713H11.182ZM13.182 107.818H36.504V103.818H13.182V107.818ZM35.1604 107.299L49.6944 120.481L52.3816 117.519L37.8476 104.337L35.1604 107.299ZM51.038 117H0V121H51.038V117ZM2 119V0.530994H-2V119H2ZM0 2.53099H39.546V-1.46901H0V2.53099ZM37.546 0.530994V29.599H41.546V0.530994H37.546ZM40.9118 31.06L72.0078 1.99205L69.2762 -0.93006L38.1802 28.1379L40.9118 31.06ZM70.642 2.53099H128.271V-1.46901H70.642V2.53099ZM126.901 -0.925756L44.2596 76.8142L47.0004 79.7277L129.641 1.98774L126.901 -0.925756ZM44.2793 79.746L74.3613 107.293L77.0627 104.343L46.9807 76.796L44.2793 79.746ZM75.712 107.818H95.147V103.818H75.712V107.818ZM96.5022 104.347L66.4202 76.6311L63.7098 79.5729L93.7918 107.289L96.5022 104.347ZM66.4269 79.5667L76.0599 70.6097L73.3361 67.6803L63.7031 76.6373L66.4269 79.5667Z" fill="#FF5733"/>
</svg>
